<svg width="33" height="36" viewBox="0 0 33 36" fill="none" xmlns="http://www.w3.org/2000/svg">
<path d="M19 26C19 26.8929 18.8007 27.7745 18.4167 28.5806C18.0327 29.3867 17.4736 30.0969 16.7802 30.6594C16.0868 31.2219 15.2766 31.6226 14.4087 31.8323C13.5408 32.0419 12.637 32.0552 11.7633 31.8712C10.8896 31.6871 10.068 31.3104 9.35839 30.7685C8.64877 30.2266 8.06905 29.5331 7.6615 28.7387C7.25395 27.9442 7.02884 27.0689 7.00259 26.1764C6.97635 25.2839 7.14962 24.3968 7.50978 23.5798L10.3722 24.8416C10.1999 25.2327 10.1169 25.6572 10.1295 26.0844C10.1421 26.5116 10.2498 26.9306 10.4449 27.3108C10.6399 27.691 10.9174 28.023 11.257 28.2823C11.5967 28.5417 11.9899 28.722 12.4081 28.8101C12.8263 28.8982 13.2588 28.8918 13.6742 28.7915C14.0897 28.6911 14.4774 28.4994 14.8093 28.2301C15.1412 27.9609 15.4088 27.6209 15.5926 27.2351C15.7764 26.8493 15.8718 26.4274 15.8718 26H19Z" fill="#8235FF"/>
<g filter="url(#filter0_f)">
<path d="M7 26C7 25.1009 7.20205 24.2133 7.59123 23.4029C7.9804 22.5924 8.54674 21.8797 9.24839 21.3175C9.95005 20.7554 10.7691 20.3581 11.6449 20.155C12.5208 19.952 13.431 19.9483 14.3085 20.1444C15.1859 20.3405 16.0081 20.7312 16.7142 21.2878C17.4203 21.8444 17.9923 22.5525 18.3879 23.3598C18.7835 24.1672 18.9926 25.0532 18.9998 25.9522C19.007 26.8513 18.812 27.7404 18.4293 28.554L13 26L7 26Z" fill="#8235FF"/>
</g>
<g filter="url(#filter1_i)">
<mask id="path-3-inside-1" fill="white">
<path d="M32.0336 18.5416C32.9883 10.5056 31.5749 5.43228 29.0256 3.13761L29.0269 3.13628C24.9123 -0.782389 11.0163 -1.36239 6.0936 3.31228C3.88293 5.59894 3.10426 8.95495 3.01893 13.1096C2.9336 17.2656 2.83226 25.0509 10.0869 27.1629H10.0936L10.0869 30.3883C10.0869 30.3883 10.0376 31.6949 10.8723 31.9576C11.8269 32.2669 12.2589 31.6603 15.2283 28.1136C20.1936 28.5443 24.0069 27.5576 24.4403 27.4136C25.4429 27.0776 31.1163 26.3269 32.0336 18.5416ZM15.7176 25.8443C15.7176 25.8443 12.5749 29.7629 11.5976 30.7803C11.2776 31.1109 10.9269 31.0803 10.9323 30.4243C10.9323 29.9936 10.9563 25.0696 10.9563 25.0696C4.8056 23.3069 5.16826 16.6776 5.23493 13.2096C5.3016 9.74028 5.93626 6.89894 7.80826 4.98561C12.1269 0.936278 24.3096 1.84161 27.4136 4.75894C31.2083 8.12294 29.8576 17.6269 29.8656 17.9509C29.0856 24.4496 24.4883 24.8616 23.6429 25.1429C23.2816 25.2629 19.9283 26.1256 15.7176 25.8443Z"/>
</mask>
<path d="M32.0336 18.5416L16.6268 16.7113L16.6259 16.7187L16.625 16.726L32.0336 18.5416ZM29.0256 3.13761L18.0521 -7.83064L6.49483 3.73215L18.6458 14.6693L29.0256 3.13761ZM29.0269 3.13628L40.0004 14.1045L51.2369 2.86273L39.7269 -8.09892L29.0269 3.13628ZM6.0936 3.31228L-4.59022 -7.93833L-4.83063 -7.71002L-5.06108 -7.47166L6.0936 3.31228ZM3.01893 13.1096L-12.493 12.791L-12.493 12.7911L3.01893 13.1096ZM10.0869 27.1629L5.75015 42.0597L7.87444 42.6781H10.0869V27.1629ZM10.0936 27.1629L25.6087 27.195L25.6408 11.6478H10.0936V27.1629ZM10.0869 30.3883L25.591 30.9736L25.6015 30.6971L25.602 30.4203L10.0869 30.3883ZM10.8723 31.9576L15.6547 17.1979L15.5923 17.1777L15.5296 17.158L10.8723 31.9576ZM15.2283 28.1136L16.5689 12.6565L8.51895 11.9583L3.33195 18.1538L15.2283 28.1136ZM24.4403 27.4136L29.333 42.1371L29.3515 42.1309L29.3701 42.1247L24.4403 27.4136ZM11.5976 30.7803L22.7468 41.5698L22.7666 41.5495L22.7862 41.529L11.5976 30.7803ZM10.9323 30.4243L26.4469 30.5504L26.4474 30.4873V30.4243H10.9323ZM10.9563 25.0696L26.4712 25.1452L26.5285 13.3926L15.2306 10.1548L10.9563 25.0696ZM5.23493 13.2096L20.7472 13.5078L20.7472 13.5077L5.23493 13.2096ZM7.80826 4.98561L-2.804 -6.33251L-3.04791 -6.10381L-3.28174 -5.86482L7.80826 4.98561ZM27.4136 4.75894L16.7879 16.0645L16.9524 16.2191L17.1213 16.3688L27.4136 4.75894ZM29.8656 17.9509L45.2702 19.7999L45.4037 18.6877L45.376 17.568L29.8656 17.9509ZM23.6429 25.1429L28.5329 39.8673L28.5423 39.8642L23.6429 25.1429ZM47.4404 20.3719C48.5293 11.2057 47.8801 -0.765927 39.4054 -8.39411L18.6458 14.6693C17.6921 13.8108 17.1685 12.984 16.9137 12.4895C16.6637 12.0044 16.6383 11.7775 16.6779 11.9611C16.77 12.3875 16.9654 13.8607 16.6268 16.7113L47.4404 20.3719ZM39.9991 14.1059L40.0004 14.1045L18.0534 -7.83197L18.0521 -7.83064L39.9991 14.1059ZM39.7269 -8.09892C36.0189 -11.6303 31.5391 -13.2842 28.4703 -14.1185C25.0657 -15.0441 21.459 -15.4749 18.0334 -15.5124C14.6116 -15.55 10.868 -15.2007 7.22756 -14.243C3.77746 -13.3353 -0.766292 -11.5696 -4.59022 -7.93833L16.7774 14.5629C16.0338 15.269 15.4172 15.6028 15.1883 15.7157C14.9486 15.834 14.9038 15.8237 15.1225 15.7662C15.3293 15.7118 15.6715 15.6416 16.1439 15.589C16.6109 15.5371 17.1372 15.5099 17.6931 15.516C18.2486 15.5221 18.7821 15.5609 19.2612 15.6231C19.746 15.6861 20.1061 15.7642 20.3296 15.8249C20.5714 15.8907 20.5262 15.9013 20.2652 15.7742C20.125 15.7058 19.8808 15.5773 19.5655 15.3681C19.2527 15.1604 18.8171 14.8383 18.3269 14.3715L39.7269 -8.09892ZM-5.06108 -7.47166C-11.4449 -0.868396 -12.3841 7.49135 -12.493 12.791L18.5308 13.4282C18.5433 12.8195 18.5786 12.3944 18.6142 12.116C18.6499 11.8374 18.6771 11.7751 18.6486 11.8724C18.6182 11.9763 18.5195 12.2778 18.2904 12.6946C18.0543 13.1245 17.7127 13.6158 17.2483 14.0962L-5.06108 -7.47166ZM-12.493 12.7911C-12.5305 14.6177 -12.7439 20.0914 -10.9808 25.6181C-8.9284 32.052 -3.94844 39.2362 5.75015 42.0597L14.4237 12.2662C15.2159 12.4968 16.3312 13.0776 17.3026 14.1283C18.1852 15.083 18.5031 15.9411 18.5817 16.1875C18.6484 16.3966 18.5863 16.2933 18.5463 15.7064C18.5063 15.119 18.5094 14.4722 18.5308 13.4281L-12.493 12.7911ZM10.0869 42.6781H10.0936V11.6478H10.0869V42.6781ZM-5.42153 27.1309L-5.42819 30.3562L25.602 30.4203L25.6087 27.195L-5.42153 27.1309ZM10.0869 30.3883C-5.41718 29.8029 -5.41736 29.8078 -5.41755 29.8127C-5.41761 29.8144 -5.41779 29.8193 -5.41791 29.8226C-5.41815 29.8292 -5.41839 29.8358 -5.41862 29.8425C-5.41909 29.8559 -5.41955 29.8695 -5.42 29.8832C-5.4209 29.9106 -5.42175 29.9388 -5.42253 29.9676C-5.42411 30.0253 -5.42546 30.0859 -5.4265 30.1493C-5.42857 30.2759 -5.42941 30.415 -5.42825 30.5653C-5.42594 30.863 -5.41563 31.2209 -5.38872 31.6257C-5.33838 32.383 -5.21458 33.5518 -4.86418 34.921C-4.38346 36.7994 -2.12076 44.134 6.21487 46.7572L15.5296 17.158C19.1411 18.2945 21.6034 20.5764 23.0651 22.6434C24.4037 24.5362 24.9575 26.2907 25.1974 27.2279C25.4558 28.2376 25.5397 29.0633 25.5732 29.5674C25.5917 29.8456 25.5994 30.0993 25.6011 30.3245C25.602 30.4387 25.6014 30.5494 25.5997 30.6567C25.5988 30.7105 25.5976 30.7637 25.5962 30.8164C25.5954 30.8428 25.5946 30.8691 25.5938 30.8953C25.5934 30.9084 25.5929 30.9214 25.5925 30.9345C25.5922 30.941 25.592 30.9476 25.5918 30.9541C25.5916 30.9573 25.5915 30.9622 25.5914 30.9639C25.5912 30.9688 25.591 30.9736 10.0869 30.3883ZM6.0898 46.7173C8.26637 47.4225 11.9115 48.1185 16.1465 46.8012C19.6843 45.7007 21.9705 43.6704 22.858 42.8455C24.3847 41.4264 26.1544 39.2323 27.1246 38.0734L3.33195 18.1538C2.51923 19.1245 2.04735 19.6932 1.65843 20.1461C1.21267 20.6652 1.33828 20.4833 1.73151 20.1177C2.02047 19.8491 3.83415 18.1342 6.92961 17.1713C10.7223 15.9915 13.9555 16.6473 15.6547 17.1979L6.0898 46.7173ZM13.8876 43.5707C21.1967 44.2047 27.133 42.8682 29.333 42.1371L19.5475 12.6901C19.8213 12.5992 20.0213 12.542 20.0826 12.5246C20.1726 12.4991 20.2345 12.4829 20.2644 12.4752C20.3252 12.4596 20.3273 12.4603 20.2733 12.4719C20.1661 12.4948 19.9112 12.5445 19.5413 12.5924C18.7791 12.6911 17.7242 12.7567 16.5689 12.6565L13.8876 43.5707ZM29.3701 42.1247C27.3156 42.8132 33.1612 41.3893 37.3785 38.3304C42.6569 34.5018 46.4928 28.4141 47.4422 20.3572L16.625 16.726C16.6139 16.8209 16.6716 16.2604 17.1685 15.4007C17.6748 14.5249 18.3858 13.7729 19.1593 13.2118C19.8823 12.6875 20.5123 12.4348 20.8191 12.328C20.973 12.2744 21.0655 12.2515 20.994 12.2707C20.9724 12.2765 20.9454 12.2836 20.8937 12.2972C20.8559 12.3071 20.7644 12.3311 20.679 12.3539C20.5838 12.3793 20.0815 12.5111 19.5105 12.7025L29.3701 42.1247ZM15.7176 25.8443C3.61396 16.1375 3.61406 16.1373 3.61416 16.1372C3.61417 16.1372 3.61426 16.1371 3.61429 16.1371C3.61435 16.137 3.61437 16.137 3.61434 16.137C3.61428 16.1371 3.61403 16.1374 3.6136 16.1379C3.61274 16.139 3.61114 16.141 3.60882 16.1439C3.60418 16.1497 3.59668 16.159 3.58647 16.1717C3.56604 16.1971 3.53481 16.236 3.49408 16.2866C3.41253 16.3879 3.29327 16.5359 3.1465 16.7174C2.85158 17.0822 2.45217 17.5742 2.02795 18.0914C0.97191 19.379 0.379417 20.0623 0.40897 20.0316L22.7862 41.529C23.7931 40.4809 25.2606 38.6963 26.0202 37.7701C26.5038 37.1805 26.9512 36.6293 27.2761 36.2275C27.4392 36.0258 27.5731 35.8596 27.6672 35.7427C27.7143 35.6842 27.7516 35.6378 27.7777 35.6054C27.7907 35.5891 27.801 35.5763 27.8083 35.5672C27.8119 35.5627 27.8149 35.559 27.817 35.5563C27.8181 35.555 27.819 35.5539 27.8197 35.553C27.8201 35.5525 27.8204 35.5522 27.8206 35.5518C27.8207 35.5517 27.8209 35.5515 27.821 35.5514C27.8211 35.5512 27.8212 35.5511 15.7176 25.8443ZM0.448372 19.9907C1.32744 19.0823 2.8908 17.7063 5.24064 16.6981C7.60945 15.6818 11.8552 14.6426 16.6615 16.4718C21.6415 18.367 24.218 22.1879 25.3308 24.8844C26.3667 27.3944 26.4551 29.5374 26.4469 30.5504L-4.58238 30.2981C-4.59328 31.6392 -4.46297 34.032 -3.35287 36.7219C-2.16579 39.5983 0.517388 43.5292 5.62435 45.4728C10.5577 47.3503 14.9507 46.2978 17.4751 45.2147C19.9806 44.1398 21.7077 42.6436 22.7468 41.5698L0.448372 19.9907ZM26.4474 30.4243C26.4474 30.4263 26.4474 30.4205 26.4475 30.4031C26.4475 30.3871 26.4475 30.3658 26.4476 30.3388C26.4478 30.2848 26.448 30.2143 26.4483 30.1284C26.449 29.957 26.4499 29.7327 26.451 29.4728C26.4533 28.9534 26.4562 28.2997 26.4592 27.6579C26.4622 27.0164 26.4652 26.3882 26.4675 25.9203C26.4686 25.6863 26.4695 25.4925 26.4702 25.3572C26.4705 25.2895 26.4708 25.2365 26.471 25.2004C26.4711 25.1824 26.4711 25.1686 26.4712 25.1593C26.4712 25.1546 26.4712 25.1511 26.4712 25.1488C26.4712 25.1476 26.4712 25.1467 26.4712 25.1461C26.4712 25.1458 26.4712 25.1456 26.4712 25.1454C26.4712 25.1454 26.4712 25.1453 26.4712 25.1453C26.4712 25.1452 26.4712 25.1452 10.9563 25.0696C-4.55871 24.994 -4.55871 24.994 -4.55871 24.9941C-4.55871 24.9941 -4.55871 24.9942 -4.55871 24.9942C-4.55871 24.9944 -4.55871 24.9946 -4.55871 24.9949C-4.55871 24.9955 -4.55872 24.9964 -4.55872 24.9976C-4.55874 25 -4.55875 25.0036 -4.55878 25.0082C-4.55882 25.0176 -4.55889 25.0315 -4.55898 25.0496C-4.55915 25.0859 -4.55941 25.139 -4.55974 25.2069C-4.5604 25.3425 -4.56134 25.5368 -4.56246 25.7712C-4.56471 26.2399 -4.56772 26.8696 -4.57072 27.513C-4.57656 28.7639 -4.58289 30.1612 -4.58289 30.4243H26.4474ZM15.2306 10.1548C16.3592 10.4783 17.7898 11.2453 18.9986 12.5905C20.1075 13.8246 20.5282 14.9846 20.666 15.4602C20.792 15.8949 20.755 16.0053 20.7343 15.559C20.7113 15.0624 20.7255 14.6387 20.7472 13.5078L-10.2774 12.9114C-10.2969 13.9301 -10.5984 19.0583 -9.13781 24.0981C-7.36154 30.2268 -2.7061 37.2939 6.68197 39.9844L15.2306 10.1548ZM20.7472 13.5077C20.7659 12.5338 20.8615 12.4362 20.7461 12.8343C20.598 13.3453 20.1217 14.5856 18.8983 15.836L-3.28174 -5.86482C-9.44142 0.430869 -10.1907 8.40406 -10.2774 12.9115L20.7472 13.5077ZM18.4205 16.3037C17.5474 17.1224 16.7832 17.5358 16.4148 17.7106C16.0365 17.8902 15.8499 17.9253 15.9371 17.904C16.0111 17.886 16.2193 17.8431 16.5639 17.8103C16.9023 17.778 17.3011 17.7621 17.7353 17.7714C18.1687 17.7806 18.5848 17.8138 18.9536 17.8625C19.3287 17.9121 19.5849 17.9684 19.7109 18.0015C19.8615 18.041 19.7074 18.0153 19.3318 17.8412C19.1332 17.7492 18.8085 17.5859 18.4018 17.3272C18.002 17.0729 17.4281 16.6662 16.7879 16.0645L38.0393 -6.5466C34.4237 -9.94476 30.0547 -11.3652 27.5852 -12.0131C24.6119 -12.7932 21.4375 -13.1869 18.3976 -13.2518C15.3675 -13.3165 11.9554 -13.0656 8.577 -12.2408C5.40246 -11.4657 0.971284 -9.87235 -2.804 -6.33251L18.4205 16.3037ZM17.1213 16.3688C16.0651 15.4324 15.4282 14.4968 15.0717 13.8603C14.7207 13.2335 14.5722 12.7752 14.5249 12.6161C14.4507 12.3667 14.5281 12.5345 14.5627 13.2469C14.5935 13.8824 14.5734 14.574 14.5322 15.1899C14.5127 15.481 14.4904 15.7295 14.4704 15.9361C14.4652 15.9902 14.4601 16.0415 14.4545 16.0984C14.4498 16.1456 14.4419 16.2244 14.4352 16.2939C14.4297 16.3505 14.4159 16.4942 14.4028 16.6579C14.3963 16.7393 14.3842 16.8962 14.3737 17.0903C14.3678 17.1991 14.3395 17.6996 14.3552 18.3339L45.376 17.568C45.4053 18.7537 45.254 19.9785 45.3216 19.2788C45.3234 19.26 45.326 19.2346 45.3331 19.1624C45.3393 19.0999 45.3476 19.0167 45.3567 18.922C45.3943 18.5337 45.4465 17.9603 45.4932 17.2623C45.5844 15.8999 45.6633 13.9445 45.5565 11.743C45.4534 9.61839 45.1564 6.7592 44.268 3.77159C43.4172 0.910223 41.6434 -3.36024 37.7058 -6.85094L17.1213 16.3688ZM14.461 16.102C14.4815 15.9314 14.6172 15.1064 15.2553 14.0041C15.9116 12.8703 16.8326 11.905 17.8578 11.1845C18.8238 10.5056 19.685 10.1808 20.1366 10.0364C20.3581 9.96558 20.5063 9.9313 20.4365 9.94838C20.4108 9.95467 20.3919 9.9592 20.3292 9.97435C20.2822 9.98571 20.1873 10.0086 20.0834 10.0346C19.9608 10.0652 19.4005 10.203 18.7436 10.4217L28.5423 39.8642C25.6139 40.8388 31.8726 39.262 35.6997 36.5724C40.9116 32.9096 44.3942 27.098 45.2702 19.7999L14.461 16.102ZM18.7529 10.4186C19.0457 10.3213 19.262 10.26 19.321 10.2434C19.4145 10.2169 19.4803 10.1997 19.5139 10.1911C19.5823 10.1735 19.5968 10.1712 19.5597 10.1792C19.4863 10.1951 19.2869 10.2352 18.9927 10.276C18.3749 10.3617 17.5708 10.4184 16.7519 10.3636L14.6833 41.3249C21.1205 41.755 26.487 40.5468 28.5329 39.8673L18.7529 10.4186Z" fill="white" fill-opacity="0.1" mask="url(#path-3-inside-1)"/>
</g>
<g filter="url(#filter2_bi)">
<mask id="path-5-inside-2" fill="white">
<path d="M17.4563 5.74707C16.943 5.74707 16.943 6.54707 17.4563 6.55374C21.439 6.5844 24.719 9.3604 24.755 14.4524C24.755 14.9897 25.5416 14.9831 25.535 14.4457H25.5336C25.491 8.95907 21.9096 5.77774 17.4563 5.74707Z"/>
</mask>
<path d="M17.4563 6.55374L17.4413 7.71165L17.4474 7.7117L17.4563 6.55374ZM24.755 14.4524H25.913L25.9129 14.4442L24.755 14.4524ZM25.535 14.4457L26.6929 14.4314L26.6787 13.2877H25.535V14.4457ZM25.5336 14.4457L24.3757 14.4547L24.3846 15.6037H25.5336V14.4457ZM17.4563 4.58907C16.9979 4.58907 16.5768 4.78088 16.2871 5.11997C16.0184 5.43445 15.9133 5.81344 15.9133 6.1479C15.9133 6.48264 16.0185 6.85917 16.283 7.17228C16.5677 7.50917 16.9833 7.70569 17.4413 7.71164L17.4713 5.39584C17.6726 5.39845 17.8957 5.49247 18.052 5.67748C18.1883 5.83872 18.2293 6.01401 18.2293 6.1479C18.2293 6.28154 18.1883 6.46011 18.048 6.62438C17.8866 6.81326 17.658 6.90507 17.4563 6.90507V4.58907ZM17.4474 7.7117C19.1695 7.72496 20.6806 8.32783 21.7631 9.42019C22.8412 10.5081 23.5808 12.1695 23.597 14.4606L25.9129 14.4442C25.8931 11.6433 24.9747 9.3707 23.4081 7.78995C21.846 6.21364 19.7257 5.41318 17.4652 5.39577L17.4474 7.7117ZM23.597 14.4524C23.597 14.8913 23.7683 15.3118 24.1014 15.6128C24.4149 15.8961 24.804 16.013 25.1573 16.01C25.5107 16.007 25.8968 15.8835 26.205 15.5966C26.5323 15.2918 26.6983 14.8702 26.6929 14.4314L24.377 14.4601C24.3749 14.2899 24.4451 14.0707 24.6268 13.9015C24.7894 13.7501 24.98 13.6955 25.1376 13.6941C25.2951 13.6928 25.4879 13.7442 25.6541 13.8944C25.8399 14.0623 25.913 14.2821 25.913 14.4524H23.597ZM25.535 13.2877H25.5336V15.6037H25.535V13.2877ZM26.6916 14.4367C26.6683 11.436 25.6713 8.96735 23.9754 7.23931C22.2823 5.514 19.9693 4.60635 17.4643 4.5891L17.4483 6.90504C19.3967 6.91846 21.101 7.61681 22.3225 8.8615C23.5413 10.1035 24.3563 11.9688 24.3757 14.4547L26.6916 14.4367Z" fill="white" fill-opacity="0.1" mask="url(#path-5-inside-2)"/>
</g>
<g filter="url(#filter3_bi)">
<mask id="path-7-inside-3" fill="white">
<path d="M22.6951 13.6085C22.6831 14.1392 23.4684 14.1645 23.4751 13.6272C23.5404 10.6019 21.6751 8.10987 18.1697 7.8472C17.6564 7.80987 17.6031 8.61654 18.1151 8.65387C21.1551 8.88454 22.7564 10.9592 22.6951 13.6085Z"/>
</mask>
<path d="M23.4751 13.6272L22.3173 13.6022L22.3172 13.6128L23.4751 13.6272ZM18.1697 7.8472L18.2563 6.69244L18.2537 6.69226L18.1697 7.8472ZM18.1151 8.65387L18.2027 7.49919L18.1993 7.49894L18.1151 8.65387ZM21.5374 13.5824C21.5274 14.0235 21.6918 14.4442 22.0124 14.7495C22.3139 15.0366 22.6941 15.166 23.0455 15.1759C23.397 15.1858 23.7896 15.0778 24.11 14.7981C24.451 14.5006 24.6275 14.0802 24.633 13.6416L22.3172 13.6128C22.3193 13.4429 22.3951 13.2208 22.5874 13.0531C22.7591 12.9032 22.9549 12.8565 23.1106 12.8608C23.2664 12.8652 23.4521 12.9224 23.6095 13.0723C23.786 13.2403 23.8568 13.4589 23.8528 13.6347L21.5374 13.5824ZM24.6328 13.6522C24.6707 11.8957 24.1475 10.2244 23.0364 8.9427C21.9176 7.65203 20.2781 6.84394 18.2563 6.69244L18.0832 9.00196C19.5667 9.11313 20.6126 9.68238 21.2864 10.4597C21.968 11.246 22.3447 12.3334 22.3173 13.6022L24.6328 13.6522ZM18.2537 6.69226C17.7927 6.65873 17.3565 6.82279 17.0435 7.14383C16.754 7.44076 16.6247 7.81265 16.6025 8.14519C16.5802 8.47795 16.6589 8.86122 16.9022 9.19237C17.1646 9.54971 17.5696 9.77517 18.0309 9.8088L18.1993 7.49894C18.4046 7.51391 18.6242 7.62453 18.7687 7.82129C18.894 7.99185 18.9221 8.16879 18.9133 8.29988C18.9046 8.43076 18.8529 8.60565 18.7017 8.76066C18.5271 8.93979 18.2901 9.01702 18.0857 9.00215L18.2537 6.69226ZM18.0275 9.80855C19.2924 9.90453 20.1544 10.3702 20.6985 10.9889C21.2483 11.6142 21.5625 12.4974 21.5374 13.5817L23.8528 13.6353C23.889 12.0703 23.4331 10.5915 22.4377 9.45951C21.4364 8.32092 19.9777 7.63388 18.2027 7.49919L18.0275 9.80855Z" fill="white" fill-opacity="0.1" mask="url(#path-7-inside-3)"/>
</g>
<g filter="url(#filter4_bi)">
<path d="M22.124 20.2341C21.9068 20.1513 21.6178 20.0263 21.2745 19.8616C21.3367 19.8017 21.3979 19.7378 21.4577 19.6697C21.7005 19.8363 21.9426 20.0128 22.1698 20.1895C22.1541 20.2053 22.1388 20.2202 22.124 20.2341ZM12.4486 10.3973C12.42 10.422 12.3922 10.447 12.3651 10.4721C12.3364 10.4047 12.3082 10.3382 12.2804 10.2726C12.2247 10.1411 12.1705 10.0133 12.1175 9.88966C12.219 10.0359 12.3283 10.2022 12.4486 10.3973Z" stroke="white" stroke-opacity="0.1" stroke-width="4.84848"/>
</g>
<g filter="url(#filter5_bi)">
<path d="M18.719 10.8231C20.0003 10.8978 20.6216 11.5671 20.6883 12.9418C20.7123 13.4791 21.4923 13.4418 21.4683 12.9045M18.719 10.8231L18.7325 10.5947C19.4636 10.6358 19.9632 10.867 20.2924 11.2183C20.6264 11.5749 20.8516 12.1261 20.8899 12.932L20.9473 12.9293L21.2666 12.9141C21.2666 12.9147 21.2667 12.9152 21.2667 12.9157M18.719 10.8231C18.2003 10.7925 18.2483 9.98581 18.7616 10.0165C20.4469 10.1098 21.3829 11.1098 21.4683 12.9045M18.719 10.8231L21.2666 12.9135M21.2667 12.9157C21.2667 12.9158 21.2667 12.9159 21.2667 12.916L21.2667 12.916L21.2667 12.9157ZM21.2667 12.9157L21.2666 12.9141L21.4683 12.9045M21.4683 12.9045L21.2666 12.9135M21.2666 12.9135C21.2297 12.153 21.0355 11.4875 20.5833 11.0009C20.1248 10.5074 19.4855 10.2878 18.7526 10.2451L18.7323 10.5946C18.7313 10.5946 18.7304 10.5946 18.7296 10.5946C18.729 10.5945 18.7284 10.5945 18.7278 10.5945M21.2666 12.9135L18.7271 10.5945L18.7278 10.5945M18.7278 10.5945L18.7296 10.5946C18.7305 10.5946 18.7314 10.5947 18.7323 10.5947L18.7278 10.5945ZM18.8006 10.5809C18.7711 10.5923 18.7467 10.5947 18.7325 10.5946L18.7531 10.2452C18.7646 10.2458 18.7898 10.2499 18.8207 10.2662C18.8514 10.2824 18.877 10.305 18.8955 10.3294C18.9301 10.3749 18.9323 10.4132 18.9314 10.4293C18.9305 10.4453 18.9241 10.4833 18.8841 10.5252C18.8626 10.5477 18.8341 10.5679 18.8006 10.5809ZM21.1951 12.7941C21.2498 12.8398 21.2646 12.8945 21.2665 12.9135L20.8899 12.9303C20.8891 12.9142 20.8975 12.8566 20.9489 12.8047C20.9916 12.7617 21.0376 12.7493 21.0686 12.7478C21.0995 12.7463 21.1475 12.7543 21.1951 12.7941Z" stroke="white" stroke-opacity="0.1" stroke-width="1.158"/>
</g>
<defs>
<filter id="filter0_f" x="0" y="13" width="26" height="22.554" filterUnits="userSpaceOnUse" color-interpolation-filters="sRGB">
<feFlood flood-opacity="0" result="BackgroundImageFix"/>
<feBlend mode="normal" in="SourceGraphic" in2="BackgroundImageFix" result="shape"/>
<feGaussianBlur stdDeviation="3.5" result="effect1_foregroundBlur"/>
</filter>
<filter id="filter1_i" x="3" y="0" width="29.3332" height="32.1173" filterUnits="userSpaceOnUse" color-interpolation-filters="sRGB">
<feFlood flood-opacity="0" result="BackgroundImageFix"/>
<feBlend mode="normal" in="SourceGraphic" in2="BackgroundImageFix" result="shape"/>
<feColorMatrix in="SourceAlpha" type="matrix" values="0 0 0 0 0 0 0 0 0 0 0 0 0 0 0 0 0 0 127 0" result="hardAlpha"/>
<feOffset dy="0.0890768"/>
<feGaussianBlur stdDeviation="0.0445384"/>
<feComposite in2="hardAlpha" operator="arithmetic" k2="-1" k3="1"/>
<feColorMatrix type="matrix" values="0 0 0 0 1 0 0 0 0 1 0 0 0 0 1 0 0 0 0.3 0"/>
<feBlend mode="normal" in2="shape" result="effect1_innerShadow"/>
</filter>
<filter id="filter2_bi" x="13.1519" y="1.82769" width="16.3025" height="16.9438" filterUnits="userSpaceOnUse" color-interpolation-filters="sRGB">
<feFlood flood-opacity="0" result="BackgroundImageFix"/>
<feGaussianBlur in="BackgroundImage" stdDeviation="1.95969"/>
<feComposite in2="SourceAlpha" operator="in" result="effect1_backgroundBlur"/>
<feBlend mode="normal" in="SourceGraphic" in2="effect1_backgroundBlur" result="shape"/>
<feColorMatrix in="SourceAlpha" type="matrix" values="0 0 0 0 0 0 0 0 0 0 0 0 0 0 0 0 0 0 127 0" result="hardAlpha"/>
<feOffset dy="0.0890768"/>
<feGaussianBlur stdDeviation="0.0445384"/>
<feComposite in2="hardAlpha" operator="arithmetic" k2="-1" k3="1"/>
<feColorMatrix type="matrix" values="0 0 0 0 1 0 0 0 0 1 0 0 0 0 1 0 0 0 0.3 0"/>
<feBlend mode="normal" in2="shape" result="effect2_innerShadow"/>
</filter>
<filter id="filter3_bi" x="13.8375" y="3.92657" width="13.5587" height="14.0114" filterUnits="userSpaceOnUse" color-interpolation-filters="sRGB">
<feFlood flood-opacity="0" result="BackgroundImageFix"/>
<feGaussianBlur in="BackgroundImage" stdDeviation="1.95969"/>
<feComposite in2="SourceAlpha" operator="in" result="effect1_backgroundBlur"/>
<feBlend mode="normal" in="SourceGraphic" in2="effect1_backgroundBlur" result="shape"/>
<feColorMatrix in="SourceAlpha" type="matrix" values="0 0 0 0 0 0 0 0 0 0 0 0 0 0 0 0 0 0 127 0" result="hardAlpha"/>
<feOffset dy="0.0890768"/>
<feGaussianBlur stdDeviation="0.0445384"/>
<feComposite in2="hardAlpha" operator="arithmetic" k2="-1" k3="1"/>
<feColorMatrix type="matrix" values="0 0 0 0 1 0 0 0 0 1 0 0 0 0 1 0 0 0 0.3 0"/>
<feBlend mode="normal" in2="shape" result="effect2_innerShadow"/>
</filter>
<filter id="filter4_bi" x="5.54644" y="2.75201" width="23.3912" height="23.9182" filterUnits="userSpaceOnUse" color-interpolation-filters="sRGB">
<feFlood flood-opacity="0" result="BackgroundImageFix"/>
<feGaussianBlur in="BackgroundImage" stdDeviation="1.95969"/>
<feComposite in2="SourceAlpha" operator="in" result="effect1_backgroundBlur"/>
<feBlend mode="normal" in="SourceGraphic" in2="effect1_backgroundBlur" result="shape"/>
<feColorMatrix in="SourceAlpha" type="matrix" values="0 0 0 0 0 0 0 0 0 0 0 0 0 0 0 0 0 0 127 0" result="hardAlpha"/>
<feOffset dy="0.0890768"/>
<feGaussianBlur stdDeviation="0.0445384"/>
<feComposite in2="hardAlpha" operator="arithmetic" k2="-1" k3="1"/>
<feColorMatrix type="matrix" values="0 0 0 0 1 0 0 0 0 1 0 0 0 0 1 0 0 0 0.3 0"/>
<feBlend mode="normal" in2="shape" result="effect2_innerShadow"/>
</filter>
<filter id="filter5_bi" x="14.4332" y="6.09625" width="10.955" height="11.1498" filterUnits="userSpaceOnUse" color-interpolation-filters="sRGB">
<feFlood flood-opacity="0" result="BackgroundImageFix"/>
<feGaussianBlur in="BackgroundImage" stdDeviation="1.95969"/>
<feComposite in2="SourceAlpha" operator="in" result="effect1_backgroundBlur"/>
<feBlend mode="normal" in="SourceGraphic" in2="effect1_backgroundBlur" result="shape"/>
<feColorMatrix in="SourceAlpha" type="matrix" values="0 0 0 0 0 0 0 0 0 0 0 0 0 0 0 0 0 0 127 0" result="hardAlpha"/>
<feOffset dy="0.0890768"/>
<feGaussianBlur stdDeviation="0.0445384"/>
<feComposite in2="hardAlpha" operator="arithmetic" k2="-1" k3="1"/>
<feColorMatrix type="matrix" values="0 0 0 0 1 0 0 0 0 1 0 0 0 0 1 0 0 0 0.3 0"/>
<feBlend mode="normal" in2="shape" result="effect2_innerShadow"/>
</filter>
</defs>
</svg>
