<svg width="30" height="38" viewBox="0 0 30 38" fill="none" xmlns="http://www.w3.org/2000/svg">
<circle cx="9.66028" cy="26.5" r="4" stroke="#8235FF" stroke-width="3" stroke-linecap="round"/>
<g filter="url(#filter0_bii)">
<path d="M1.2822 11.8745C1.16553 6.97458 5.10572 2.93945 10.007 2.93945H19.4937C24.3136 2.93945 28.221 6.84679 28.221 11.6667V19.3827C28.221 23.8246 24.8848 27.5578 20.4709 28.0551L11.668 29.047C11.2544 29.0936 10.8888 29.3373 10.6867 29.7011L9.25231 32.283C8.75608 33.1763 7.39219 32.6475 7.62768 31.6532L8.21801 29.1607C8.25351 29.0109 8.0701 28.9085 7.96118 29.0174C7.90317 29.0754 7.80971 29.0773 7.74942 29.0217L3.48329 25.0837C2.25036 23.9456 1.53176 22.3561 1.49182 20.6787L1.2822 11.8745Z" fill="white" fill-opacity="0.03"/>
</g>
<g filter="url(#filter1_bi)">
<mask id="path-3-inside-1" fill="white">
<path d="M29.0336 19.524C29.9883 11.488 28.5749 6.4147 26.0256 4.12003L26.0269 4.1187C21.9123 0.200033 8.01626 -0.379967 3.0936 4.2947C0.882929 6.58137 0.104262 9.93737 0.0189288 14.092C-0.0664046 18.248 -0.167738 26.0334 7.08693 28.1454H7.09359L7.08693 31.3707C7.08693 31.3707 7.03759 32.6774 7.87226 32.94C8.82693 33.2494 9.25893 32.6427 12.2283 29.096C17.1936 29.5267 21.0069 28.54 21.4403 28.396C22.4429 28.06 28.1163 27.3094 29.0336 19.524ZM12.7176 26.8267C12.7176 26.8267 9.57493 30.7454 8.59759 31.7627C8.27759 32.0934 7.92693 32.0627 7.93226 31.4067C7.93226 30.976 7.95626 26.052 7.95626 26.052C1.8056 24.2894 2.16826 17.66 2.23493 14.192C2.3016 10.7227 2.93626 7.88137 4.80826 5.96803C9.12693 1.9187 21.3096 2.82403 24.4136 5.74137C28.2083 9.10537 26.8576 18.6094 26.8656 18.9334C26.0856 25.432 21.4883 25.844 20.6429 26.1254C20.2816 26.2454 16.9283 27.108 12.7176 26.8267Z"/>
</mask>
<path d="M29.0336 19.524L13.6268 17.6937L13.6259 17.7011L13.625 17.7085L29.0336 19.524ZM26.0256 4.12003L15.0521 -6.84822L3.49483 4.71457L15.6458 15.6518L26.0256 4.12003ZM26.0269 4.1187L37.0004 15.087L48.2369 3.84515L36.7269 -7.1165L26.0269 4.1187ZM3.0936 4.2947L-7.59022 -6.95591L-7.83063 -6.7276L-8.06108 -6.48923L3.0936 4.2947ZM0.0189288 14.092L-15.493 13.7734L-15.493 13.7735L0.0189288 14.092ZM7.08693 28.1454L2.75015 43.0421L4.87444 43.6605H7.08693V28.1454ZM7.09359 28.1454L22.6087 28.1774L22.6408 12.6302H7.09359V28.1454ZM7.08693 31.3707L22.591 31.9561L22.6015 31.6795L22.602 31.4028L7.08693 31.3707ZM7.87226 32.94L12.6547 18.1804L12.5923 18.1601L12.5296 18.1404L7.87226 32.94ZM12.2283 29.096L13.5689 13.6389L5.51895 12.9407L0.331949 19.1362L12.2283 29.096ZM21.4403 28.396L26.333 43.1195L26.3515 43.1134L26.3701 43.1072L21.4403 28.396ZM8.59759 31.7627L19.7468 42.5523L19.7666 42.5319L19.7862 42.5114L8.59759 31.7627ZM7.93226 31.4067L23.4469 31.5328L23.4474 31.4698V31.4067H7.93226ZM7.95626 26.052L23.4712 26.1277L23.5285 14.375L12.2306 11.1373L7.95626 26.052ZM2.23493 14.192L17.7472 14.4902L17.7472 14.4901L2.23493 14.192ZM4.80826 5.96803L-5.804 -5.35009L-6.04791 -5.12139L-6.28174 -4.8824L4.80826 5.96803ZM24.4136 5.74137L13.7879 17.0469L13.9524 17.2015L14.1213 17.3513L24.4136 5.74137ZM26.8656 18.9334L42.2702 20.7823L42.4037 19.6702L42.376 18.5504L26.8656 18.9334ZM20.6429 26.1254L25.5329 40.8498L25.5423 40.8467L20.6429 26.1254ZM44.4404 21.3543C45.5293 12.1881 44.8801 0.216494 36.4054 -7.41169L15.6458 15.6518C14.6921 14.7933 14.1685 13.9664 13.9137 13.4719C13.6637 12.9868 13.6383 12.76 13.6779 12.9435C13.77 13.3699 13.9654 14.8431 13.6268 17.6937L44.4404 21.3543ZM36.9991 15.0883L37.0004 15.087L15.0534 -6.84955L15.0521 -6.84822L36.9991 15.0883ZM36.7269 -7.1165C33.0189 -10.6479 28.5391 -12.3018 25.4703 -13.1361C22.0657 -14.0617 18.459 -14.4924 15.0334 -14.53C11.6116 -14.5676 7.86798 -14.2183 4.22756 -13.2606C0.777463 -12.3529 -3.76629 -10.5872 -7.59022 -6.95591L13.7774 15.5453C13.0338 16.2515 12.4172 16.5852 12.1883 16.6981C11.9486 16.8164 11.9038 16.8061 12.1225 16.7486C12.3293 16.6942 12.6715 16.624 13.1439 16.5715C13.6109 16.5195 14.1372 16.4923 14.6931 16.4984C15.2486 16.5045 15.7821 16.5433 16.2612 16.6055C16.746 16.6685 17.1061 16.7466 17.3296 16.8074C17.5714 16.8731 17.5262 16.8838 17.2652 16.7566C17.125 16.6882 16.8808 16.5598 16.5655 16.3505C16.2527 16.1429 15.8171 15.8207 15.3269 15.3539L36.7269 -7.1165ZM-8.06108 -6.48923C-14.4449 0.114026 -15.3841 8.47378 -15.493 13.7734L15.5308 14.4106C15.5433 13.8019 15.5786 13.3769 15.6142 13.0985C15.6499 12.8198 15.6771 12.7575 15.6486 12.8548C15.6182 12.9587 15.5195 13.2602 15.2904 13.6771C15.0543 14.1069 14.7127 14.5983 14.2483 15.0786L-8.06108 -6.48923ZM-15.493 13.7735C-15.5305 15.6002 -15.7439 21.0738 -13.9808 26.6005C-11.9284 33.0344 -6.94844 40.2186 2.75015 43.0421L11.4237 13.2486C12.2159 13.4793 13.3312 14.06 14.3026 15.1107C15.1852 16.0655 15.5031 16.9236 15.5817 17.1699C15.6484 17.379 15.5863 17.2757 15.5463 16.6889C15.5063 16.1014 15.5094 15.4546 15.5308 14.4105L-15.493 13.7735ZM7.08693 43.6605H7.09359V12.6302H7.08693V43.6605ZM-8.42153 28.1133L-8.42819 31.3386L22.602 31.4028L22.6087 28.1774L-8.42153 28.1133ZM7.08693 31.3707C-8.41718 30.7853 -8.41736 30.7902 -8.41755 30.7951C-8.41761 30.7968 -8.41779 30.8017 -8.41791 30.805C-8.41815 30.8116 -8.41839 30.8183 -8.41862 30.8249C-8.41909 30.8383 -8.41955 30.8519 -8.42 30.8656C-8.4209 30.893 -8.42175 30.9212 -8.42253 30.9501C-8.42411 31.0077 -8.42546 31.0684 -8.4265 31.1318C-8.42857 31.2583 -8.42941 31.3974 -8.42825 31.5478C-8.42594 31.8455 -8.41563 32.2034 -8.38872 32.6081C-8.33838 33.3654 -8.21458 34.5342 -7.86418 35.9034C-7.38346 37.7819 -5.12076 45.1165 3.21487 47.7397L12.5296 18.1404C16.1411 19.2769 18.6034 21.5588 20.0651 23.6258C21.4037 25.5186 21.9575 27.2732 22.1974 28.2103C22.4558 29.2201 22.5397 30.0457 22.5732 30.5498C22.5917 30.828 22.5994 31.0817 22.6011 31.307C22.602 31.4211 22.6014 31.5319 22.5997 31.6391C22.5988 31.6929 22.5976 31.7461 22.5962 31.7989C22.5954 31.8252 22.5946 31.8515 22.5938 31.8777C22.5934 31.8908 22.5929 31.9039 22.5925 31.9169C22.5922 31.9235 22.592 31.93 22.5918 31.9365C22.5916 31.9398 22.5915 31.9447 22.5914 31.9463C22.5912 31.9512 22.591 31.9561 7.08693 31.3707ZM3.0898 47.6997C5.26637 48.405 8.91152 49.101 13.1465 47.7836C16.6843 46.6831 18.9705 44.6528 19.858 43.8279C21.3847 42.4088 23.1544 40.2147 24.1246 39.0558L0.331949 19.1362C-0.480773 20.107 -0.952649 20.6756 -1.34157 21.1285C-1.78733 21.6476 -1.66172 21.4657 -1.26849 21.1002C-0.979527 20.8316 0.834146 19.1166 3.92961 18.1537C7.72234 16.9739 10.9555 17.6298 12.6547 18.1804L3.0898 47.6997ZM10.8876 44.5532C18.1967 45.1871 24.133 43.8506 26.333 43.1195L16.5475 13.6725C16.8213 13.5816 17.0213 13.5245 17.0826 13.5071C17.1726 13.4815 17.2345 13.4653 17.2644 13.4576C17.3252 13.442 17.3273 13.4428 17.2733 13.4543C17.1661 13.4772 16.9112 13.527 16.5413 13.5748C15.7791 13.6736 14.7242 13.7391 13.5689 13.6389L10.8876 44.5532ZM26.3701 43.1072C24.3156 43.7956 30.1612 42.3717 34.3785 39.3128C39.6569 35.4843 43.4928 29.3965 44.4422 21.3396L13.625 17.7085C13.6139 17.8033 13.6716 17.2428 14.1685 16.3831C14.6748 15.5073 15.3858 14.7553 16.1593 14.1943C16.8823 13.6699 17.5123 13.4172 17.8191 13.3104C17.973 13.2568 18.0655 13.2339 17.994 13.2531C17.9724 13.2589 17.9454 13.266 17.8937 13.2796C17.8559 13.2896 17.7644 13.3136 17.679 13.3364C17.5838 13.3618 17.0815 13.4936 16.5105 13.6849L26.3701 43.1072ZM12.7176 26.8267C0.613957 17.1199 0.614064 17.1198 0.614159 17.1197C0.614175 17.1196 0.614258 17.1195 0.61429 17.1195C0.614354 17.1194 0.614371 17.1194 0.614341 17.1194C0.614281 17.1195 0.614034 17.1198 0.613603 17.1203C0.61274 17.1214 0.611139 17.1234 0.608821 17.1263C0.604183 17.1321 0.596678 17.1414 0.586467 17.1541C0.566038 17.1796 0.534813 17.2184 0.494075 17.269C0.412528 17.3703 0.293271 17.5183 0.1465 17.6998C-0.148419 18.0646 -0.547825 18.5567 -0.972051 19.0739C-2.02809 20.3614 -2.62058 21.0448 -2.59103 21.014L19.7862 42.5114C20.7931 41.4633 22.2606 39.6787 23.0202 38.7525C23.5038 38.1629 23.9512 37.6117 24.2761 37.2099C24.4392 37.0082 24.5731 36.8421 24.6672 36.7251C24.7143 36.6666 24.7516 36.6202 24.7777 36.5878C24.7907 36.5715 24.801 36.5588 24.8083 36.5496C24.8119 36.5451 24.8149 36.5414 24.817 36.5387C24.8181 36.5374 24.819 36.5363 24.8197 36.5354C24.8201 36.535 24.8204 36.5346 24.8206 36.5343C24.8207 36.5341 24.8209 36.5339 24.821 36.5338C24.8211 36.5337 24.8212 36.5335 12.7176 26.8267ZM-2.55163 20.9731C-1.67256 20.0648 -0.109197 18.6887 2.24064 17.6805C4.60945 16.6642 8.85515 15.625 13.6615 17.4542C18.6415 19.3494 21.218 23.1703 22.3308 25.8668C23.3667 28.3768 23.4551 30.5198 23.4469 31.5328L-7.58238 31.2806C-7.59328 32.6216 -7.46297 35.0144 -6.35287 37.7043C-5.16579 40.5808 -2.48261 44.5116 2.62435 46.4552C7.5577 48.3328 11.9507 47.2802 14.4751 46.1971C16.9806 45.1222 18.7077 43.626 19.7468 42.5523L-2.55163 20.9731ZM23.4474 31.4067C23.4474 31.4087 23.4474 31.4029 23.4475 31.3856C23.4475 31.3695 23.4475 31.3483 23.4476 31.3213C23.4478 31.2672 23.448 31.1968 23.4483 31.1109C23.449 30.9394 23.4499 30.7151 23.451 30.4552C23.4533 29.9358 23.4562 29.2821 23.4592 28.6403C23.4622 27.9988 23.4652 27.3706 23.4675 26.9027C23.4686 26.6687 23.4695 26.4749 23.4702 26.3396C23.4705 26.272 23.4708 26.2189 23.471 26.1828C23.4711 26.1648 23.4711 26.151 23.4712 26.1417C23.4712 26.137 23.4712 26.1335 23.4712 26.1312C23.4712 26.13 23.4712 26.1291 23.4712 26.1285C23.4712 26.1282 23.4712 26.128 23.4712 26.1279C23.4712 26.1278 23.4712 26.1277 23.4712 26.1277C23.4712 26.1277 23.4712 26.1277 7.95626 26.052C-7.55871 25.9764 -7.55871 25.9764 -7.55871 25.9765C-7.55871 25.9765 -7.55871 25.9766 -7.55871 25.9766C-7.55871 25.9768 -7.55871 25.977 -7.55871 25.9773C-7.55871 25.9779 -7.55872 25.9788 -7.55872 25.98C-7.55874 25.9824 -7.55875 25.986 -7.55878 25.9907C-7.55882 26 -7.55889 26.0139 -7.55898 26.032C-7.55915 26.0683 -7.55941 26.1215 -7.55974 26.1893C-7.5604 26.325 -7.56134 26.5192 -7.56246 26.7536C-7.56471 27.2224 -7.56772 27.8521 -7.57072 28.4954C-7.57656 29.7463 -7.58289 31.1436 -7.58289 31.4067H23.4474ZM12.2306 11.1373C13.3592 11.4607 14.7898 12.2277 15.9986 13.5729C17.1075 14.8071 17.5282 15.967 17.666 16.4426C17.792 16.8773 17.755 16.9877 17.7343 16.5414C17.7113 16.0448 17.7255 15.6212 17.7472 14.4902L-13.2774 13.8938C-13.2969 14.9125 -13.5984 20.0408 -12.1378 25.0805C-10.3615 31.2092 -5.7061 38.2764 3.68197 40.9668L12.2306 11.1373ZM17.7472 14.4901C17.7659 13.5163 17.8615 13.4187 17.7461 13.8167C17.598 14.3277 17.1217 15.5681 15.8983 16.8185L-6.28174 -4.8824C-12.4414 1.41329 -13.1907 9.38649 -13.2774 13.8939L17.7472 14.4901ZM15.4205 17.2862C14.5474 18.1048 13.7832 18.5183 13.4148 18.6931C13.0365 18.8726 12.8499 18.9077 12.9371 18.8865C13.0111 18.8684 13.2193 18.8255 13.5639 18.7927C13.9023 18.7604 14.3011 18.7445 14.7353 18.7538C15.1687 18.7631 15.5848 18.7962 15.9536 18.845C16.3287 18.8945 16.5849 18.9508 16.7109 18.9839C16.8615 19.0234 16.7074 18.9978 16.3318 18.8237C16.1332 18.7316 15.8085 18.5683 15.4018 18.3096C15.002 18.0553 14.4281 17.6486 13.7879 17.0469L35.0393 -5.56418C31.4237 -8.96234 27.0547 -10.3828 24.5852 -11.0307C21.6119 -11.8107 18.4375 -12.2045 15.3976 -12.2694C12.3675 -12.3341 8.95542 -12.0832 5.577 -11.2583C2.40246 -10.4833 -2.02872 -8.88993 -5.804 -5.35009L15.4205 17.2862ZM14.1213 17.3513C13.0651 16.4149 12.4282 15.4792 12.0717 14.8428C11.7207 14.216 11.5722 13.7576 11.5249 13.5985C11.4507 13.3491 11.5281 13.5169 11.5627 14.2294C11.5935 14.8648 11.5734 15.5564 11.5322 16.1723C11.5127 16.4634 11.4904 16.7119 11.4704 16.9186C11.4652 16.9726 11.4601 17.0239 11.4545 17.0808C11.4498 17.128 11.4419 17.2069 11.4352 17.2763C11.4297 17.333 11.4159 17.4767 11.4028 17.6403C11.3963 17.7217 11.3842 17.8787 11.3737 18.0727C11.3678 18.1815 11.3395 18.6821 11.3552 19.3163L42.376 18.5504C42.4053 19.7361 42.254 20.9609 42.3216 20.2613C42.3234 20.2425 42.326 20.2171 42.3331 20.1448C42.3393 20.0823 42.3476 19.9991 42.3567 19.9044C42.3943 19.5161 42.4465 18.9427 42.4932 18.2447C42.5844 16.8823 42.6633 14.9269 42.5565 12.7254C42.4534 10.6008 42.1564 7.74162 41.268 4.75401C40.4172 1.89264 38.6434 -2.37782 34.7058 -5.86852L14.1213 17.3513ZM11.461 17.0844C11.4815 16.9138 11.6172 16.0888 12.2553 14.9865C12.9116 13.8527 13.8326 12.8874 14.8578 12.1669C15.8238 11.4881 16.685 11.1632 17.1366 11.0188C17.3581 10.948 17.5063 10.9137 17.4365 10.9308C17.4108 10.9371 17.3919 10.9416 17.3292 10.9568C17.2822 10.9681 17.1873 10.9911 17.0834 11.017C16.9608 11.0476 16.4005 11.1855 15.7436 11.4041L25.5423 40.8467C22.6139 41.8213 28.8726 40.2444 32.6997 37.5548C37.9116 33.8921 41.3942 28.0804 42.2702 20.7823L11.461 17.0844ZM15.7529 11.401C16.0457 11.3037 16.262 11.2424 16.321 11.2258C16.4145 11.1994 16.4803 11.1821 16.5139 11.1735C16.5823 11.156 16.5968 11.1536 16.5597 11.1616C16.4863 11.1775 16.2869 11.2176 15.9927 11.2584C15.3749 11.3441 14.5708 11.4008 13.7519 11.3461L11.6833 42.3073C18.1205 42.7374 23.487 41.5292 25.5329 40.8498L15.7529 11.401Z" fill="white" fill-opacity="0.1" mask="url(#path-3-inside-1)"/>
</g>
<g filter="url(#filter2_bi)">
<mask id="path-5-inside-2" fill="white">
<path d="M14.4563 6.72949C13.943 6.72949 13.943 7.52949 14.4563 7.53616C18.439 7.56683 21.719 10.3428 21.755 15.4348C21.755 15.9722 22.5416 15.9655 22.535 15.4282H22.5336C22.491 9.94149 18.9096 6.76016 14.4563 6.72949Z"/>
</mask>
<path d="M14.4563 7.53616L14.4413 8.69408L14.4474 8.69412L14.4563 7.53616ZM21.755 15.4348H22.913L22.9129 15.4266L21.755 15.4348ZM22.535 15.4282L23.6929 15.4138L23.6787 14.2702H22.535V15.4282ZM22.5336 15.4282L21.3757 15.4372L21.3846 16.5862H22.5336V15.4282ZM14.4563 5.57149C13.9979 5.57149 13.5768 5.7633 13.2871 6.10239C13.0184 6.41687 12.9133 6.79586 12.9133 7.13033C12.9133 7.46506 13.0185 7.84159 13.283 8.15471C13.5677 8.49159 13.9833 8.68811 14.4413 8.69406L14.4713 6.37826C14.6726 6.38087 14.8957 6.47489 15.052 6.6599C15.1883 6.82114 15.2293 6.99643 15.2293 7.13033C15.2293 7.26396 15.1883 7.44253 15.048 7.6068C14.8866 7.79568 14.658 7.88749 14.4563 7.88749V5.57149ZM14.4474 8.69412C16.1695 8.70738 17.6806 9.31025 18.7631 10.4026C19.8412 11.4905 20.5808 13.1519 20.597 15.443L22.9129 15.4266C22.8931 12.6257 21.9747 10.3531 20.4081 8.77237C18.846 7.19606 16.7257 6.3956 14.4652 6.37819L14.4474 8.69412ZM20.597 15.4348C20.597 15.8737 20.7683 16.2943 21.1014 16.5953C21.4149 16.8785 21.804 16.9955 22.1573 16.9924C22.5107 16.9894 22.8968 16.8659 23.205 16.579C23.5323 16.2742 23.6983 15.8526 23.6929 15.4138L21.377 15.4425C21.3749 15.2724 21.4451 15.0531 21.6268 14.8839C21.7894 14.7325 21.98 14.6779 22.1376 14.6765C22.2951 14.6752 22.4879 14.7266 22.6541 14.8768C22.8399 15.0447 22.913 15.2646 22.913 15.4348H20.597ZM22.535 14.2702H22.5336V16.5862H22.535V14.2702ZM23.6916 15.4192C23.6683 12.4185 22.6713 9.94978 20.9754 8.22173C19.2823 6.49642 16.9693 5.58877 14.4643 5.57152L14.4483 7.88746C16.3967 7.90088 18.101 8.59923 19.3225 9.84392C20.5413 11.0859 21.3563 12.9512 21.3757 15.4372L23.6916 15.4192Z" fill="white" fill-opacity="0.1" mask="url(#path-5-inside-2)"/>
</g>
<g filter="url(#filter3_bi)">
<mask id="path-7-inside-3" fill="white">
<path d="M19.695 14.5907C19.683 15.1214 20.4683 15.1467 20.475 14.6094C20.5403 11.584 18.675 9.09205 15.1696 8.82938C14.6563 8.79205 14.6029 9.59871 15.1149 9.63605C18.1549 9.86671 19.7563 11.9414 19.695 14.5907Z"/>
</mask>
<path d="M20.475 14.6094L19.3172 14.5844L19.317 14.595L20.475 14.6094ZM15.1696 8.82938L15.2561 7.67462L15.2536 7.67443L15.1696 8.82938ZM15.1149 9.63605L15.2026 8.48136L15.1992 8.48112L15.1149 9.63605ZM18.5372 14.5645C18.5273 15.0056 18.6917 15.4264 19.0122 15.7317C19.3138 16.0188 19.694 16.1482 20.0454 16.1581C20.3968 16.168 20.7895 16.0599 21.1099 15.7803C21.4509 15.4828 21.6274 15.0624 21.6329 14.6237L19.317 14.595C19.3192 14.425 19.395 14.203 19.5872 14.0352C19.7589 13.8854 19.9547 13.8386 20.1105 13.843C20.2663 13.8474 20.4519 13.9045 20.6094 14.0545C20.7859 14.2225 20.8566 14.4411 20.8527 14.6169L18.5372 14.5645ZM21.6327 14.6344C21.6706 12.8779 21.1474 11.2066 20.0363 9.92488C18.9175 8.63421 17.278 7.82612 15.2561 7.67462L15.0831 9.98414C16.5666 10.0953 17.6124 10.6646 18.2863 11.4419C18.9679 12.2282 19.3446 13.3156 19.3172 14.5844L21.6327 14.6344ZM15.2536 7.67443C14.7926 7.6409 14.3564 7.80497 14.0434 8.126C13.7539 8.42293 13.6246 8.79483 13.6024 9.12737C13.5801 9.46013 13.6588 9.8434 13.902 10.1746C14.1645 10.5319 14.5695 10.7573 15.0307 10.791L15.1992 8.48112C15.4044 8.49608 15.624 8.60671 15.7686 8.80346C15.8939 8.97403 15.922 9.15097 15.9132 9.28206C15.9044 9.41293 15.8528 9.58783 15.7016 9.74284C15.527 9.92196 15.29 9.99919 15.0856 9.98433L15.2536 7.67443ZM15.0273 10.7907C16.2923 10.8867 17.1542 11.3523 17.6983 11.9711C18.2482 12.5964 18.5624 13.4796 18.5373 14.5639L20.8526 14.6175C20.8889 13.0525 20.433 11.5737 19.4375 10.4417C18.4363 9.3031 16.9776 8.61605 15.2026 8.48137L15.0273 10.7907Z" fill="white" fill-opacity="0.1" mask="url(#path-7-inside-3)"/>
</g>
<g filter="url(#filter4_bi)">
<path d="M19.1241 21.2165C18.9069 21.1337 18.618 21.0087 18.2746 20.844C18.3368 20.7841 18.398 20.7202 18.4579 20.6521C18.7006 20.8188 18.9428 20.9952 19.17 21.1719C19.1542 21.1877 19.1389 21.2026 19.1241 21.2165ZM9.44869 11.3797C9.42012 11.4044 9.3923 11.4294 9.36519 11.4546C9.33654 11.3872 9.30835 11.3206 9.28054 11.255C9.22479 11.1235 9.17063 10.9958 9.11763 10.8721C9.21914 11.0183 9.3284 11.1846 9.44869 11.3797Z" stroke="white" stroke-opacity="0.1" stroke-width="4.84848"/>
</g>
<g filter="url(#filter5_bi)">
<path d="M15.719 11.8056C17.0003 11.8802 17.6216 12.5496 17.6883 13.9242C17.7123 14.4616 18.4923 14.4242 18.4683 13.8869M15.719 11.8056L15.7325 11.5772C16.4636 11.6182 16.9632 11.8494 17.2924 12.2008C17.6264 12.5573 17.8516 13.1086 17.8899 13.9144L17.9473 13.9117L18.2666 13.8965C18.2666 13.8971 18.2667 13.8976 18.2667 13.8981M15.719 11.8056C15.2003 11.7749 15.2483 10.9682 15.7616 10.9989C17.4469 11.0922 18.3829 12.0922 18.4683 13.8869M15.719 11.8056L18.2666 13.8959M18.2667 13.8981C18.2667 13.8982 18.2667 13.8983 18.2667 13.8984L18.2667 13.8984L18.2667 13.8981ZM18.2667 13.8981L18.2666 13.8965L18.4683 13.8869M18.4683 13.8869L18.2666 13.8959M18.2666 13.8959C18.2297 13.1354 18.0355 12.4699 17.5833 11.9833C17.1248 11.4898 16.4855 11.2703 15.7526 11.2275L15.7323 11.577C15.7313 11.577 15.7304 11.577 15.7296 11.577C15.729 11.577 15.7284 11.5769 15.7278 11.5769M18.2666 13.8959L15.7271 11.5769L15.7278 11.5769M15.7278 11.5769L15.7296 11.577C15.7305 11.5771 15.7314 11.5771 15.7323 11.5772L15.7278 11.5769ZM15.8006 11.5633C15.7711 11.5747 15.7467 11.5771 15.7325 11.577L15.7531 11.2276C15.7646 11.2283 15.7898 11.2323 15.8207 11.2486C15.8514 11.2648 15.877 11.2874 15.8955 11.3118C15.9301 11.3574 15.9323 11.3956 15.9314 11.4117C15.9305 11.4277 15.9241 11.4658 15.8841 11.5076C15.8626 11.5301 15.8341 11.5503 15.8006 11.5633ZM18.1951 13.7765C18.2498 13.8222 18.2646 13.8769 18.2665 13.8959L17.8899 13.9127C17.8891 13.8966 17.8975 13.839 17.9489 13.7872C17.9916 13.7441 18.0376 13.7317 18.0686 13.7302C18.0995 13.7288 18.1475 13.7367 18.1951 13.7765Z" stroke="white" stroke-opacity="0.1" stroke-width="1.158"/>
</g>
<defs>
<filter id="filter0_bii" x="-2.55064" y="-0.89085" width="34.6019" height="37.4607" filterUnits="userSpaceOnUse" color-interpolation-filters="sRGB">
<feFlood flood-opacity="0" result="BackgroundImageFix"/>
<feGaussianBlur in="BackgroundImage" stdDeviation="1.91515"/>
<feComposite in2="SourceAlpha" operator="in" result="effect1_backgroundBlur"/>
<feBlend mode="normal" in="SourceGraphic" in2="effect1_backgroundBlur" result="shape"/>
<feColorMatrix in="SourceAlpha" type="matrix" values="0 0 0 0 0 0 0 0 0 0 0 0 0 0 0 0 0 0 127 0" result="hardAlpha"/>
<feOffset dy="0.178154"/>
<feGaussianBlur stdDeviation="0.0890768"/>
<feComposite in2="hardAlpha" operator="arithmetic" k2="-1" k3="1"/>
<feColorMatrix type="matrix" values="0 0 0 0 1 0 0 0 0 1 0 0 0 0 1 0 0 0 0.15 0"/>
<feBlend mode="normal" in2="shape" result="effect2_innerShadow"/>
<feColorMatrix in="SourceAlpha" type="matrix" values="0 0 0 0 0 0 0 0 0 0 0 0 0 0 0 0 0 0 127 0" result="hardAlpha"/>
<feOffset/>
<feGaussianBlur stdDeviation="1.51431"/>
<feComposite in2="hardAlpha" operator="arithmetic" k2="-1" k3="1"/>
<feColorMatrix type="matrix" values="0 0 0 0 1 0 0 0 0 1 0 0 0 0 1 0 0 0 0.05 0"/>
<feBlend mode="normal" in2="effect2_innerShadow" result="effect3_innerShadow"/>
</filter>
<filter id="filter1_bi" x="-3.91938" y="-2.93696" width="37.172" height="39.867" filterUnits="userSpaceOnUse" color-interpolation-filters="sRGB">
<feFlood flood-opacity="0" result="BackgroundImageFix"/>
<feGaussianBlur in="BackgroundImage" stdDeviation="1.95969"/>
<feComposite in2="SourceAlpha" operator="in" result="effect1_backgroundBlur"/>
<feBlend mode="normal" in="SourceGraphic" in2="effect1_backgroundBlur" result="shape"/>
<feColorMatrix in="SourceAlpha" type="matrix" values="0 0 0 0 0 0 0 0 0 0 0 0 0 0 0 0 0 0 127 0" result="hardAlpha"/>
<feOffset dy="0.0890768"/>
<feGaussianBlur stdDeviation="0.0445384"/>
<feComposite in2="hardAlpha" operator="arithmetic" k2="-1" k3="1"/>
<feColorMatrix type="matrix" values="0 0 0 0 1 0 0 0 0 1 0 0 0 0 1 0 0 0 0.3 0"/>
<feBlend mode="normal" in2="shape" result="effect2_innerShadow"/>
</filter>
<filter id="filter2_bi" x="10.1519" y="2.81011" width="16.3025" height="16.9438" filterUnits="userSpaceOnUse" color-interpolation-filters="sRGB">
<feFlood flood-opacity="0" result="BackgroundImageFix"/>
<feGaussianBlur in="BackgroundImage" stdDeviation="1.95969"/>
<feComposite in2="SourceAlpha" operator="in" result="effect1_backgroundBlur"/>
<feBlend mode="normal" in="SourceGraphic" in2="effect1_backgroundBlur" result="shape"/>
<feColorMatrix in="SourceAlpha" type="matrix" values="0 0 0 0 0 0 0 0 0 0 0 0 0 0 0 0 0 0 127 0" result="hardAlpha"/>
<feOffset dy="0.0890768"/>
<feGaussianBlur stdDeviation="0.0445384"/>
<feComposite in2="hardAlpha" operator="arithmetic" k2="-1" k3="1"/>
<feColorMatrix type="matrix" values="0 0 0 0 1 0 0 0 0 1 0 0 0 0 1 0 0 0 0.3 0"/>
<feBlend mode="normal" in2="shape" result="effect2_innerShadow"/>
</filter>
<filter id="filter3_bi" x="10.8373" y="4.90875" width="13.5587" height="14.0114" filterUnits="userSpaceOnUse" color-interpolation-filters="sRGB">
<feFlood flood-opacity="0" result="BackgroundImageFix"/>
<feGaussianBlur in="BackgroundImage" stdDeviation="1.95969"/>
<feComposite in2="SourceAlpha" operator="in" result="effect1_backgroundBlur"/>
<feBlend mode="normal" in="SourceGraphic" in2="effect1_backgroundBlur" result="shape"/>
<feColorMatrix in="SourceAlpha" type="matrix" values="0 0 0 0 0 0 0 0 0 0 0 0 0 0 0 0 0 0 127 0" result="hardAlpha"/>
<feOffset dy="0.0890768"/>
<feGaussianBlur stdDeviation="0.0445384"/>
<feComposite in2="hardAlpha" operator="arithmetic" k2="-1" k3="1"/>
<feColorMatrix type="matrix" values="0 0 0 0 1 0 0 0 0 1 0 0 0 0 1 0 0 0 0.3 0"/>
<feBlend mode="normal" in2="shape" result="effect2_innerShadow"/>
</filter>
<filter id="filter4_bi" x="2.54656" y="3.73443" width="23.3912" height="23.9182" filterUnits="userSpaceOnUse" color-interpolation-filters="sRGB">
<feFlood flood-opacity="0" result="BackgroundImageFix"/>
<feGaussianBlur in="BackgroundImage" stdDeviation="1.95969"/>
<feComposite in2="SourceAlpha" operator="in" result="effect1_backgroundBlur"/>
<feBlend mode="normal" in="SourceGraphic" in2="effect1_backgroundBlur" result="shape"/>
<feColorMatrix in="SourceAlpha" type="matrix" values="0 0 0 0 0 0 0 0 0 0 0 0 0 0 0 0 0 0 127 0" result="hardAlpha"/>
<feOffset dy="0.0890768"/>
<feGaussianBlur stdDeviation="0.0445384"/>
<feComposite in2="hardAlpha" operator="arithmetic" k2="-1" k3="1"/>
<feColorMatrix type="matrix" values="0 0 0 0 1 0 0 0 0 1 0 0 0 0 1 0 0 0 0.3 0"/>
<feBlend mode="normal" in2="shape" result="effect2_innerShadow"/>
</filter>
<filter id="filter5_bi" x="11.4332" y="7.07867" width="10.955" height="11.1498" filterUnits="userSpaceOnUse" color-interpolation-filters="sRGB">
<feFlood flood-opacity="0" result="BackgroundImageFix"/>
<feGaussianBlur in="BackgroundImage" stdDeviation="1.95969"/>
<feComposite in2="SourceAlpha" operator="in" result="effect1_backgroundBlur"/>
<feBlend mode="normal" in="SourceGraphic" in2="effect1_backgroundBlur" result="shape"/>
<feColorMatrix in="SourceAlpha" type="matrix" values="0 0 0 0 0 0 0 0 0 0 0 0 0 0 0 0 0 0 127 0" result="hardAlpha"/>
<feOffset dy="0.0890768"/>
<feGaussianBlur stdDeviation="0.0445384"/>
<feComposite in2="hardAlpha" operator="arithmetic" k2="-1" k3="1"/>
<feColorMatrix type="matrix" values="0 0 0 0 1 0 0 0 0 1 0 0 0 0 1 0 0 0 0.3 0"/>
<feBlend mode="normal" in2="shape" result="effect2_innerShadow"/>
</filter>
</defs>
</svg>
